<svg width="109" height="43" viewBox="0 0 109 43" fill="none" xmlns="http://www.w3.org/2000/svg">
<g clip-path="url(#clip0_1542_4208)">
<path d="M58.1699 21.8101V15.1156H59.078V20.9944H62.3079V15.1156H63.216V20.9944H64.0118V21.8101H58.1699Z" fill="#292F3C"/>
<path d="M66.0434 21.0038H69.5073V21.8101H65.1352V15.1156H69.3762V15.9126H66.0434V17.9472H69.1703V18.7254H66.0434V21.0038Z" fill="#292F3C"/>
<path d="M70.949 21.8101H69.9567L72.7746 15.1156H73.6921L76.5101 21.8101H75.499L73.224 16.3158L70.949 21.8101Z" fill="#292F3C"/>
<path d="M78.1671 20.4975L81.7809 15.1156H82.8762V21.8101H81.9681V16.4002H81.9494L78.345 21.8101H77.2403V15.1156H78.1484V20.4975H78.1671Z" fill="#292F3C"/>
<path d="M85.5912 21.2475C85.5912 21.4069 85.5257 21.557 85.404 21.6788C85.2916 21.8007 85.1325 21.8664 84.9546 21.8664C84.7767 21.8664 84.6269 21.8101 84.5052 21.6788C84.3835 21.557 84.318 21.4163 84.318 21.2569C84.318 21.0788 84.3835 20.9381 84.4959 20.8162C84.6176 20.6944 84.7674 20.6287 84.9546 20.6287C85.1325 20.6287 85.2916 20.685 85.404 20.8069C85.5257 20.9288 85.5912 21.0694 85.5912 21.2475Z" fill="#292F3C"/>
<path d="M92.7251 20.7694C92.4629 21.1257 92.1259 21.4257 91.6952 21.6413C91.2739 21.8664 90.7684 21.9789 90.1786 21.9789C89.6637 21.9789 89.1956 21.8945 88.7649 21.7163C88.3343 21.5476 87.9598 21.3038 87.6508 20.9944C87.3419 20.6756 87.0985 20.3099 86.9206 19.8786C86.7427 19.4474 86.6585 18.9692 86.6585 18.4535C86.6585 17.9284 86.7427 17.4503 86.9206 17.019C87.1079 16.5877 87.3513 16.2126 87.6696 15.9126C87.9879 15.6032 88.3624 15.3688 88.8024 15.2C89.233 15.0313 89.7105 14.9375 90.216 14.9375C90.4407 14.9375 90.6748 14.9656 90.9088 15.0031C91.1429 15.05 91.3582 15.1156 91.5735 15.2094C91.7888 15.2938 91.9855 15.4063 92.1633 15.5282C92.3412 15.6595 92.491 15.8095 92.6127 15.9782L91.8825 16.5502C91.714 16.3251 91.4799 16.1376 91.1803 15.9876C90.8901 15.8376 90.5624 15.7626 90.216 15.7626C89.8228 15.7626 89.4764 15.8376 89.1581 15.9782C88.8492 16.1189 88.587 16.3158 88.3624 16.5595C88.147 16.8033 87.9692 17.094 87.8568 17.4128C87.7351 17.7409 87.6789 18.0878 87.6789 18.4535C87.6789 18.8285 87.7351 19.1848 87.8475 19.513C87.9692 19.8411 88.1283 20.1224 88.353 20.3662C88.5683 20.61 88.8305 20.7975 89.1394 20.9381C89.4577 21.0788 89.8041 21.1444 90.188 21.1444C90.5624 21.1444 90.9088 21.0694 91.2178 20.9194C91.5267 20.7694 91.7795 20.5537 91.9855 20.2631L92.7251 20.7694Z" fill="#292F3C"/>
<path d="M105.045 20.2631H105.074L107.04 15.1156H108.5V21.8101H107.564V16.2126H107.545L105.326 21.8101H104.727L102.518 16.2126H102.499V21.8101H101.591V15.1156H103.051L105.045 20.2631Z" fill="#292F3C"/>
<path fill-rule="evenodd" clip-rule="evenodd" d="M99.3815 18.6402C99.3721 18.6778 99.3721 18.7246 99.3628 18.7715C99.3628 18.7996 99.3534 18.8278 99.3534 18.8559C99.344 18.9122 99.3347 18.959 99.316 19.0153C99.316 19.034 99.3066 19.0622 99.2972 19.0809C99.2879 19.1372 99.2691 19.1841 99.2504 19.2403C99.2411 19.2591 99.2411 19.2778 99.2317 19.3059C99.213 19.3528 99.1942 19.3997 99.1662 19.4466C99.1568 19.4747 99.1474 19.4935 99.1287 19.5216C99.11 19.5591 99.0913 19.606 99.0725 19.6435C99.0538 19.6716 99.0351 19.7091 99.007 19.7372C98.9883 19.7654 98.9696 19.8029 98.9508 19.831C98.9228 19.8685 98.8947 19.906 98.8666 19.9435C98.8479 19.9623 98.8385 19.981 98.8198 19.9998C98.7823 20.0466 98.7449 20.0842 98.7074 20.1217C98.6981 20.1404 98.6793 20.1498 98.6606 20.1685C98.6232 20.206 98.5857 20.2435 98.5389 20.281C98.5202 20.2904 98.5015 20.3092 98.4827 20.3279C98.4453 20.3561 98.4078 20.3842 98.361 20.4217C98.3423 20.4311 98.3142 20.4498 98.2861 20.4686C98.2487 20.4873 98.2112 20.5154 98.1738 20.5342C98.1363 20.553 98.1083 20.5717 98.0708 20.5905C98.0334 20.6092 98.0053 20.628 97.9678 20.6467C97.9304 20.6561 97.8836 20.6748 97.8461 20.6936C97.8087 20.703 97.7806 20.7217 97.7431 20.7311C97.7057 20.7405 97.6682 20.7498 97.6214 20.7686C97.584 20.778 97.5465 20.7874 97.5091 20.7967C97.4716 20.8061 97.4342 20.8061 97.3967 20.8155C97.3593 20.8249 97.3125 20.8249 97.275 20.8342C97.2376 20.8342 97.2001 20.8436 97.1627 20.8436C97.1253 20.8436 97.0784 20.853 97.041 20.853C96.9942 20.853 96.9567 20.853 96.9193 20.853C96.8818 20.8436 96.8444 20.8436 96.8069 20.8436C96.7601 20.8342 96.7133 20.8342 96.6665 20.8249C96.6384 20.8249 96.6103 20.8155 96.5823 20.8155C96.5354 20.8061 96.4793 20.7967 96.4325 20.7874C96.4044 20.778 96.3857 20.7686 96.3669 20.7686C96.3108 20.7498 96.2546 20.7311 96.2078 20.7217C96.1891 20.7123 96.161 20.703 96.1422 20.6936C96.0954 20.6748 96.0486 20.6561 95.9924 20.6373C95.9737 20.6186 95.9456 20.6092 95.9176 20.5998C95.8801 20.5717 95.8427 20.553 95.7958 20.5342C95.7678 20.5154 95.7397 20.4967 95.7022 20.4779C95.6741 20.4592 95.6461 20.4311 95.618 20.4123C95.5805 20.3842 95.5431 20.3561 95.5056 20.3279C95.4869 20.3186 95.4588 20.2998 95.4401 20.281C95.4026 20.2435 95.3652 20.206 95.3277 20.1685C95.309 20.1592 95.2903 20.1404 95.2716 20.1217C95.2341 20.0842 95.1967 20.0466 95.1686 19.9998C95.1499 19.9904 95.1311 19.9716 95.1218 19.9529C95.0843 19.906 95.0563 19.8685 95.0282 19.8216C95.0094 19.8029 94.9907 19.7747 94.9814 19.756C94.9533 19.7185 94.9345 19.6716 94.9065 19.6341C94.8877 19.606 94.869 19.5685 94.8503 19.531C94.8409 19.5028 94.8222 19.4653 94.8035 19.4278C94.7848 19.3903 94.766 19.3528 94.7567 19.3059C94.7379 19.2778 94.7286 19.2403 94.7192 19.2028C94.7005 19.1653 94.6911 19.1278 94.6818 19.0903C94.6724 19.0528 94.663 19.0153 94.6537 18.9684C94.6443 18.9309 94.635 18.8934 94.635 18.8559C94.6256 18.8184 94.6162 18.7809 94.6162 18.734C94.6069 18.6965 94.6069 18.659 94.6069 18.6215C94.5975 18.584 94.5975 18.5371 94.5975 18.4996C94.5975 18.4621 94.5975 18.4152 94.5975 18.3777C94.5975 18.3402 94.5975 18.3027 94.6069 18.2652C94.6069 18.2183 94.6069 18.1714 94.6162 18.1246C94.6256 18.0964 94.6256 18.0683 94.635 18.0402C94.6443 17.9933 94.6537 17.937 94.663 17.8902C94.6724 17.8714 94.6724 17.8433 94.6818 17.8245C94.6911 17.7683 94.7099 17.7214 94.7286 17.6651C94.7379 17.6464 94.7473 17.6183 94.7473 17.5995C94.766 17.5526 94.7941 17.5058 94.8128 17.4589C94.8222 17.4307 94.8316 17.4026 94.8503 17.3839C94.869 17.337 94.8877 17.2995 94.9158 17.262C94.9345 17.2245 94.9533 17.1963 94.972 17.1682C94.9907 17.1307 95.0094 17.1026 95.0282 17.0745C95.0563 17.037 95.0843 16.9994 95.1124 16.9619C95.1311 16.9432 95.1499 16.9244 95.1686 16.8963C95.1967 16.8588 95.2341 16.8213 95.2716 16.7838C95.2903 16.765 95.2997 16.7463 95.3184 16.7369C95.3558 16.6994 95.4026 16.6619 95.4401 16.6244C95.4588 16.6057 95.4775 16.5963 95.4963 16.5775C95.5337 16.5494 95.5805 16.5119 95.618 16.4838C95.6461 16.465 95.6648 16.4556 95.6929 16.4369C95.7303 16.4088 95.7678 16.39 95.8052 16.3619C95.8427 16.3431 95.8707 16.3244 95.9082 16.315C95.9456 16.2962 95.9831 16.2775 96.0112 16.2587C96.058 16.24 96.0954 16.2306 96.1329 16.2119C96.1703 16.2025 96.1984 16.1837 96.2359 16.1744C96.2733 16.1556 96.3201 16.1462 96.3576 16.1369C96.395 16.1275 96.4325 16.1181 96.4699 16.1087C96.5074 16.0994 96.5448 16.09 96.5823 16.09C96.6291 16.0806 96.6665 16.0712 96.704 16.0712C96.7414 16.0619 96.7789 16.0619 96.8163 16.0619C96.8631 16.0525 96.9006 16.0525 96.9474 16.0525C96.9848 16.0525 97.0223 16.0525 97.0597 16.0525C97.0972 16.0525 97.1346 16.0525 97.1721 16.0619C97.2189 16.0619 97.2657 16.0712 97.3125 16.0712C97.3406 16.0806 97.3687 16.0806 97.3967 16.09C97.4529 16.0994 97.4997 16.1087 97.5559 16.1181C97.5746 16.1275 97.5933 16.1275 97.6214 16.1369C97.6682 16.1556 97.7244 16.165 97.7806 16.1837C97.7993 16.1931 97.818 16.2025 97.8368 16.2119C97.8836 16.2306 97.9397 16.2494 97.9866 16.2681C98.0146 16.2775 98.0334 16.2962 98.0614 16.3056C98.0989 16.3244 98.1457 16.3431 98.1832 16.3713C98.2112 16.39 98.2393 16.4088 98.2768 16.4275C98.3049 16.4463 98.3329 16.465 98.3704 16.4838C98.4078 16.5119 98.4359 16.54 98.4734 16.5682C98.5015 16.5869 98.5202 16.6057 98.5389 16.6244C98.5764 16.6525 98.6232 16.69 98.6606 16.7275C98.67 16.7463 98.6887 16.765 98.7074 16.7744C98.7449 16.8119 98.7823 16.8588 98.8198 16.8963C98.8291 16.9151 98.8479 16.9338 98.8572 16.9526C98.8947 16.9901 98.9228 17.037 98.9508 17.0745C98.9696 17.1026 98.9883 17.1213 99.007 17.1495C99.0257 17.187 99.0538 17.2245 99.0725 17.2714C99.0913 17.2995 99.11 17.337 99.1287 17.3651C99.1474 17.4026 99.1662 17.4401 99.1755 17.4776C99.1942 17.5151 99.213 17.5526 99.2223 17.5901C99.2411 17.6276 99.2504 17.6651 99.2691 17.6933C99.2785 17.7402 99.2879 17.7777 99.2972 17.8152C99.3066 17.8527 99.316 17.8902 99.3253 17.9277C99.3347 17.9652 99.344 18.0027 99.3534 18.0402C99.3534 18.0871 99.3628 18.1246 99.3721 18.1621C99.3721 18.1996 99.3721 18.2371 99.3815 18.2746C99.3815 18.3215 99.3815 18.359 99.3815 18.4058C99.3815 18.4434 99.3815 18.4809 99.3815 18.5184C99.3815 18.5652 99.3815 18.6027 99.3815 18.6402ZM99.5875 20.9749C99.6436 20.9186 99.6998 20.853 99.7466 20.7967C99.7747 20.7686 99.8028 20.7311 99.8309 20.703C99.8683 20.6467 99.9151 20.5905 99.9526 20.5342C99.9807 20.4873 100.018 20.4404 100.046 20.3936C100.074 20.3467 100.102 20.2998 100.13 20.2529C100.168 20.1967 100.196 20.131 100.224 20.0654C100.243 20.0279 100.262 19.9904 100.28 19.9529C100.318 19.8873 100.346 19.8122 100.374 19.7372C100.383 19.6997 100.402 19.6716 100.411 19.6341C100.439 19.5591 100.458 19.4841 100.486 19.3997C100.496 19.3716 100.505 19.3341 100.505 19.2966C100.524 19.2216 100.542 19.1466 100.561 19.0715C100.561 19.0247 100.57 18.9778 100.58 18.9403C100.589 18.8653 100.589 18.7996 100.599 18.734C100.608 18.6778 100.608 18.6121 100.608 18.5559C100.608 18.5184 100.617 18.4902 100.617 18.4527C100.617 18.4246 100.608 18.4058 100.608 18.3777C100.608 18.3121 100.608 18.2558 100.599 18.1902C100.599 18.1339 100.589 18.0777 100.589 18.0214C100.58 17.9558 100.57 17.8995 100.561 17.8339C100.542 17.7777 100.533 17.7214 100.524 17.6651C100.514 17.6089 100.496 17.5526 100.477 17.4964C100.467 17.4307 100.449 17.3745 100.43 17.3089C100.411 17.262 100.393 17.2057 100.374 17.1495C100.346 17.0932 100.327 17.037 100.299 16.9807C100.29 16.9526 100.28 16.9338 100.271 16.9057C100.252 16.8776 100.233 16.8401 100.215 16.8026C100.196 16.765 100.168 16.7182 100.149 16.6807C100.112 16.615 100.074 16.5494 100.027 16.4838C100.009 16.4556 99.99 16.4275 99.9713 16.3994C99.9245 16.3244 99.8683 16.2494 99.8121 16.1837C99.8028 16.165 99.7841 16.1462 99.7653 16.1275C99.7092 16.0525 99.6436 15.9868 99.5781 15.9212C99.5687 15.9025 99.55 15.8931 99.5406 15.8743C99.4751 15.8087 99.4096 15.7524 99.3347 15.6962C99.316 15.6774 99.2972 15.6587 99.2785 15.6399C99.213 15.5931 99.1568 15.5462 99.0913 15.4993C99.0538 15.4805 99.0257 15.4524 98.9976 15.4337C98.9508 15.3962 98.904 15.3774 98.8572 15.3493C98.3704 15.0492 97.8087 14.8711 97.2189 14.8336H97.1908C97.1721 14.8242 97.144 14.8336 97.1253 14.8336C97.0784 14.8242 97.0316 14.8242 96.9942 14.8242C96.938 14.8242 96.8912 14.8242 96.835 14.8336C96.7976 14.8336 96.7508 14.8336 96.7133 14.8336C96.5823 14.843 96.4605 14.8617 96.3388 14.8805C96.3295 14.8899 96.3201 14.8899 96.3108 14.8899C96.1797 14.9086 96.0486 14.9461 95.9269 14.9836C95.8895 15.0024 95.852 15.0117 95.8146 15.0211C95.7116 15.0586 95.618 15.0961 95.5244 15.143C95.4963 15.1524 95.4775 15.1524 95.4495 15.1711C95.4401 15.1711 95.4214 15.1805 95.412 15.1899C95.3558 15.218 95.309 15.2461 95.2529 15.2743C95.1967 15.3024 95.1499 15.3305 95.0937 15.3587C95.075 15.3774 95.0563 15.3868 95.0469 15.3962C94.5226 15.7337 94.1107 16.1837 93.8205 16.7088L93.8017 16.7275C93.7924 16.7557 93.783 16.7838 93.7643 16.8119C93.7362 16.8776 93.6988 16.9432 93.6707 17.0182C93.6426 17.0745 93.6239 17.1307 93.5958 17.187C93.5677 17.262 93.549 17.337 93.5302 17.412C93.5022 17.4964 93.4741 17.5808 93.4554 17.6651C93.4366 17.7589 93.4179 17.8433 93.4085 17.937C93.3992 17.9839 93.3992 18.0402 93.3898 18.0964C93.3805 18.1808 93.3711 18.2746 93.3711 18.3683C93.3711 18.3965 93.3711 18.4246 93.3711 18.4527C93.3711 18.4715 93.3711 18.4996 93.3711 18.5184C93.3711 18.584 93.3805 18.6496 93.3805 18.7153C93.3898 18.7715 93.3898 18.8278 93.3992 18.884C93.3992 18.9403 93.4179 19.0059 93.4273 19.0715C93.4366 19.1278 93.446 19.1841 93.4554 19.2403C93.4741 19.2966 93.4834 19.3528 93.5022 19.4091C93.5209 19.4747 93.5302 19.531 93.5583 19.5872C93.5677 19.6435 93.5958 19.6997 93.6145 19.7466C93.6332 19.8122 93.6613 19.8685 93.68 19.9248C93.6988 19.9435 93.6988 19.9716 93.7081 19.9904C93.7268 20.0279 93.7456 20.056 93.7643 20.0842C93.7924 20.1404 93.8111 20.1873 93.8392 20.2342C93.8766 20.2998 93.9141 20.3561 93.9515 20.4217C93.9703 20.4498 93.9983 20.4873 94.0264 20.5248C94.0732 20.5905 94.1201 20.6561 94.1669 20.7123C94.1856 20.7405 94.2137 20.7686 94.2324 20.7967C94.2886 20.8624 94.3447 20.9186 94.4009 20.9842C94.4196 21.003 94.4477 21.0311 94.4758 21.0499C94.532 21.1061 94.5882 21.1624 94.6443 21.2186C94.6818 21.2374 94.7099 21.2655 94.7473 21.2937C94.8035 21.3405 94.8596 21.378 94.9158 21.4155C94.9533 21.453 95.0001 21.4812 95.0469 21.5093C95.0937 21.5374 95.1405 21.5656 95.1873 21.5937C95.2529 21.6312 95.309 21.6593 95.3746 21.6968C95.412 21.7156 95.4495 21.7343 95.4869 21.7437C95.5618 21.7812 95.6367 21.8093 95.7116 21.8375C95.7397 21.8562 95.7678 21.8656 95.8052 21.875C95.8801 21.9031 95.9644 21.9218 96.0393 21.95C96.0767 21.9594 96.1048 21.9687 96.1422 21.9781C96.2171 21.9969 96.292 22.0062 96.3763 22.025C96.4137 22.025 96.4605 22.0344 96.5074 22.0437C96.5729 22.0531 96.6384 22.0625 96.7133 22.0625C96.7695 22.0719 96.8257 22.0719 96.8818 22.0719C96.9193 22.0719 96.9567 22.0812 96.9942 22.0812C97.0129 22.0812 97.041 22.0719 97.0597 22.0719C97.1253 22.0719 97.1908 22.0719 97.2563 22.0625C97.3125 22.0625 97.3687 22.0531 97.4248 22.0531C97.481 22.0437 97.5465 22.0344 97.6027 22.025C97.6589 22.0156 97.7244 22.0062 97.7806 21.9875C97.8368 21.9781 97.8929 21.9594 97.9491 21.95C98.0053 21.9312 98.0708 21.9125 98.127 21.8937C98.1832 21.875 98.23 21.8562 98.2861 21.8375C98.3423 21.8093 98.4078 21.7906 98.464 21.7625C98.4827 21.7531 98.5108 21.7437 98.5295 21.7343C98.567 21.7156 98.5951 21.6968 98.6232 21.6874C98.6793 21.6593 98.7262 21.6312 98.773 21.6031C98.8385 21.5656 98.8947 21.5374 98.9508 21.4999C98.9883 21.4718 99.0257 21.4437 99.0632 21.4249C99.1287 21.378 99.1942 21.3312 99.2504 21.2843C99.2785 21.2562 99.3066 21.2374 99.3347 21.2093C99.4002 21.1624 99.4564 21.1061 99.5126 21.0499C99.5406 21.0218 99.5687 20.9936 99.5875 20.9749Z" fill="#1047D6"/>
<path fill-rule="evenodd" clip-rule="evenodd" d="M26.0302 42.9715H26.0114C25.8523 42.9621 25.6931 42.9527 25.534 42.934H25.4684C25.3467 42.9246 25.225 42.9152 25.1033 42.9059H25.0378C24.9161 42.8871 24.7944 42.8777 24.6727 42.8684C24.5697 42.859 24.4761 42.8496 24.3825 42.8402V42.8308H24.3637C24.2795 42.8215 24.1952 42.8121 24.111 42.8027H24.0735C23.9986 42.7933 23.9237 42.784 23.8488 42.7746V42.7652H23.8114C23.7365 42.7558 23.6616 42.7465 23.5867 42.7371H23.5773C23.3058 42.6996 23.0343 42.6527 22.7628 42.6058H22.7254C22.6692 42.5964 22.613 42.5871 22.5662 42.5777V42.5683H22.5381C22.4913 42.5589 22.4445 42.5496 22.3977 42.5402H22.3696L22.2011 42.5027H22.1917C21.9858 42.4652 21.7798 42.4183 21.5739 42.3714H21.5551C21.5083 42.362 21.4521 42.3527 21.4053 42.3433C21.3585 42.3339 21.3211 42.3245 21.2743 42.3152V42.3058H21.2555C21.2181 42.2964 21.1807 42.287 21.1432 42.2777V42.2683H21.1151C20.8623 42.212 20.6002 42.1464 20.3474 42.0808V42.0714H20.3381C20.2632 42.0526 20.1883 42.0339 20.1134 42.0151V42.0058H20.0947C20.0572 41.9964 20.0198 41.987 19.9823 41.9776H19.973C19.9449 41.9683 19.9168 41.9589 19.8887 41.9495V41.9401H19.8606C19.8232 41.9308 19.7951 41.9214 19.7576 41.912L19.6546 41.8839V41.8745H19.6453C19.2989 41.7714 18.9619 41.6682 18.6342 41.5557V41.5463H18.6155L18.5312 41.5182V41.5088H18.5218L18.4376 41.4807H18.4282L18.3346 41.4432C18.2129 41.4057 18.0912 41.3588 17.9695 41.3119C17.8759 41.2838 17.7916 41.2463 17.7073 41.2182C17.6512 41.19 17.595 41.1713 17.5388 41.1525H17.5295C17.4827 41.1244 17.4265 41.1057 17.3797 41.0869V41.0775H17.3703C17.3141 41.0588 17.2673 41.04 17.2112 41.0213V41.0119C17.155 40.9932 17.0988 40.9744 17.0426 40.9463C16.8929 40.89 16.7337 40.815 16.5839 40.7494L16.5184 40.7212H16.509C16.4341 40.6837 16.3592 40.6556 16.2843 40.6181L16.2188 40.59H16.2094C16.0877 40.5337 15.9754 40.4775 15.8537 40.4212C15.6571 40.3275 15.4605 40.2337 15.2639 40.1306V40.1212H15.2451L15.1983 40.0931H15.1796L15.1328 40.0649V40.0555H15.1141L15.0673 40.0274H15.0579L15.0017 39.9899H14.9924L14.9362 39.9618H14.9268L14.8707 39.9243C14.7209 39.8493 14.5804 39.7743 14.44 39.6899H14.4307C14.3558 39.6524 14.2809 39.6055 14.206 39.568V39.5586H14.1966L14.1404 39.5305C14.0843 39.493 14.0281 39.4649 13.9719 39.4367V39.4274H13.9626L13.9064 39.3992C13.8502 39.3617 13.794 39.3336 13.7472 39.2961H13.7379C13.5787 39.2023 13.4102 39.0992 13.251 38.9961C13.1574 38.9398 13.0732 38.8929 12.9795 38.8367C12.9515 38.8085 12.914 38.7898 12.8859 38.771H12.8766C12.8485 38.7429 12.8204 38.7242 12.7829 38.7054V38.696H12.7736C12.5489 38.5554 12.3148 38.396 12.0902 38.246V38.2366L11.9965 38.171H11.9872C11.9123 38.1147 11.8374 38.0678 11.7625 38.0116V38.0022H11.7531C11.6782 37.9553 11.6033 37.8991 11.5284 37.8428C11.3506 37.7116 11.1727 37.5803 11.0042 37.449V37.4396C10.948 37.4021 10.8918 37.3646 10.8356 37.3178V37.3084H10.8263L10.7046 37.2146C10.6484 37.1677 10.5922 37.1209 10.5361 37.0834C10.4799 37.0365 10.4331 36.9896 10.3769 36.9521C10.2458 36.8396 10.1054 36.7271 9.97434 36.6146L9.94625 36.5864H9.93689C9.87136 36.5302 9.81519 36.4739 9.74965 36.4177L9.7122 36.3895C9.61859 36.3052 9.53433 36.2301 9.45007 36.1551C9.32836 36.0426 9.20666 35.9395 9.08495 35.827L9.05686 35.7895H9.0475L9.01942 35.7613C8.57004 35.3394 8.14875 34.9175 7.73682 34.4768V34.4675H7.72746L7.69938 34.4393V34.43L7.67129 34.4018H7.66193C7.55895 34.2799 7.4466 34.1581 7.33426 34.0362C7.25936 33.9518 7.18447 33.8674 7.10957 33.7736H7.10021L7.07212 33.7455V33.7361C7.01595 33.6799 6.95978 33.6142 6.90361 33.5486V33.5392L6.87552 33.5111C6.76318 33.3798 6.65083 33.2486 6.54785 33.1079C6.50104 33.0611 6.45423 33.0048 6.40742 32.9485C6.36997 32.8923 6.32316 32.836 6.27635 32.7798L6.18273 32.6579V32.6485H6.17337C6.13592 32.5923 6.08911 32.536 6.05166 32.4797H6.0423C5.91123 32.311 5.78017 32.1328 5.6491 31.9547C5.59293 31.8797 5.53675 31.8047 5.48994 31.7297V31.7203H5.48058C5.42441 31.6453 5.3776 31.5703 5.32143 31.4953V31.4859L5.25589 31.3921C5.09674 31.1671 4.94695 30.9327 4.79716 30.7077V30.6983H4.78779C4.76907 30.6702 4.75035 30.6327 4.73162 30.6045V30.5952H4.72226C4.70354 30.567 4.68481 30.5295 4.65673 30.5014C4.60055 30.4077 4.55374 30.3233 4.49757 30.2389V30.2295C4.39459 30.0701 4.29161 29.9107 4.19799 29.742V29.7326C4.16054 29.6857 4.13245 29.6294 4.10437 29.5732H4.09501L4.06692 29.5169V29.5076H4.05756C4.02947 29.4513 4.00139 29.395 3.96394 29.3388L3.93585 29.2825V29.2732H3.92649C3.88904 29.1982 3.84223 29.1231 3.80478 29.0481V29.0388C3.72053 28.8981 3.64563 28.7575 3.57073 28.6168L3.54265 28.5512V28.5418H3.53329L3.5052 28.4856V28.4762L3.46775 28.4199V28.4106L3.43967 28.3637V28.3449H3.43031L3.40222 28.2981V28.2793L3.37413 28.2324V28.2137H3.36477C3.27115 28.0168 3.16817 27.8199 3.07455 27.623C3.01838 27.5011 2.96221 27.3886 2.9154 27.2667V27.2573H2.90603L2.87795 27.1917C2.8405 27.1167 2.81241 27.0417 2.77497 26.9667V26.9573L2.74688 26.8917C2.68135 26.7416 2.61581 26.5822 2.55028 26.4322C2.52219 26.376 2.50347 26.3197 2.48474 26.2728V26.2635H2.47538C2.45666 26.2072 2.43793 26.1603 2.41921 26.1041V26.0947H2.40985C2.39112 26.0478 2.3724 25.9916 2.35368 25.9447V25.9353H2.34431C2.32559 25.879 2.30687 25.8228 2.27878 25.7665C2.25069 25.6821 2.21325 25.5978 2.18516 25.504C2.13835 25.3821 2.09154 25.2602 2.05409 25.1477V25.1383L2.01664 25.054V25.0446L1.98856 24.9602V24.9414H1.9792L1.95111 24.8664V24.8383H1.94175C1.8294 24.5102 1.72642 24.1726 1.62344 23.8257V23.8163L1.58599 23.7226V23.7132C1.57663 23.6851 1.56727 23.6476 1.55791 23.6101V23.5819H1.54854C1.53918 23.5538 1.52982 23.5257 1.52046 23.4975V23.4882C1.5111 23.4507 1.50173 23.4132 1.49237 23.3757V23.3569H1.48301C1.46429 23.2819 1.44556 23.2069 1.42684 23.1319V23.1225H1.41748C1.35194 22.8694 1.28641 22.6068 1.23024 22.3537V22.3255H1.22087C1.21151 22.288 1.20215 22.2505 1.19279 22.213V22.1943C1.18343 22.1568 1.17406 22.1099 1.1647 22.063H1.15534C1.14598 22.0161 1.13662 21.9599 1.12725 21.913V21.8942C1.08044 21.688 1.03363 21.4817 0.996186 21.2754V21.2661L0.958738 21.1067V21.0692C0.949376 21.0223 0.940014 20.9754 0.930652 20.9285V20.9098H0.92129C0.911928 20.8535 0.902566 20.7973 0.893204 20.741V20.7035C0.846394 20.4316 0.799584 20.1597 0.762136 19.8878V19.8784C0.752774 19.8034 0.743412 19.7284 0.73405 19.6534V19.6159H0.724688C0.715326 19.5409 0.705964 19.4659 0.696602 19.3909V19.3534C0.68724 19.269 0.677878 19.1846 0.668516 19.1002V19.0908H0.659154C0.649792 18.9877 0.64043 18.8939 0.631068 18.7908C0.621706 18.6689 0.612344 18.547 0.602982 18.4251V18.3595H0.59362C0.584258 18.2376 0.574896 18.1157 0.565534 17.9938V17.9282C0.54681 17.7688 0.537448 17.6094 0.537448 17.45V17.4313H0.528086C0.509362 17 0.5 16.5593 0.5 16.1186C0.5 15.7717 0.509362 15.4248 0.518724 15.0873H0.537448V14.7685C0.537448 14.5903 0.556172 14.4028 0.565534 14.2247C0.574896 14.1122 0.584258 13.9997 0.59362 13.8965H0.602982V13.7934C0.602982 13.7184 0.612344 13.6434 0.621706 13.559H0.631068V13.4371L0.649792 13.2308H0.668516V13.1183C0.677878 13.0433 0.677878 12.9777 0.68724 12.9027H0.696602V12.837C0.715326 12.6776 0.73405 12.5276 0.762136 12.3682V12.3307L0.790222 12.1713H0.799584V12.1057L0.818308 11.9463H0.82767V11.8901L0.855756 11.74H0.865118V11.6838L0.883842 11.5431H0.893204V11.4869L0.92129 11.3463H0.930652V11.2994L0.958738 11.1494V11.1212C0.986824 11.0087 1.00555 10.8962 1.02427 10.7837L1.05236 10.6524H1.06172V10.6243L1.08981 10.4837V10.4649L1.11789 10.3524H1.12725V10.3149L1.14598 10.2211H1.1647V10.1649L1.18343 10.0524H1.19279V10.0242L1.21151 9.9211H1.23024V9.8836L1.24896 9.78984H1.25832V9.74296L1.28641 9.63045H1.29577V9.60232L1.32386 9.48981V9.47105L1.35194 9.35854H1.3613V9.34917C1.38003 9.26478 1.39875 9.1804 1.42684 9.09601C1.44556 9.02101 1.46429 8.946 1.49237 8.86161V8.85224L1.52046 8.76785V8.73973L1.55791 8.63659V8.62721L1.58599 8.53345V8.5147L1.61408 8.43969H1.62344V8.40219L1.65153 8.29905V8.28968L1.67961 8.20529H1.68897V8.17717L1.71706 8.10216H1.72642V8.07403L1.75451 7.97089L1.78259 7.87713H1.79196V7.86776L1.82004 7.774V7.76462C1.86685 7.63336 1.9043 7.50209 1.95111 7.38021V7.37083L1.98856 7.27707L2.04473 7.1083H2.05409V7.08955L2.08218 7.01454V6.99579L2.11026 6.91141H2.11963V6.90203L2.13835 6.84577H2.14771V6.81765L2.1758 6.75201H2.18516V6.72389L2.21325 6.64888V6.6395L2.24133 6.58325H2.25069V6.54574L2.27878 6.48011V6.46136L2.31623 6.38635V6.37698L2.38176 6.21758V6.20821C2.42857 6.10507 2.46602 5.99256 2.51283 5.88942V5.88005L2.57836 5.72065L2.60645 5.65502H2.61581V5.64565L2.63454 5.58939H2.6439V5.57064L2.68135 5.49563V5.48626L2.70943 5.43V5.41125L2.73752 5.35499H2.74688V5.33624L2.7656 5.28936H2.77497V5.26123L2.81241 5.1956V5.18622L2.8405 5.12997V5.11122L2.86859 5.06434H2.87795V5.03621L2.89667 4.9987H2.9154V4.97058L2.94348 4.89557L2.97157 4.82994H2.98093V4.82056L3.00902 4.7643V4.75493L3.0371 4.69867H3.04646V4.67992C3.17753 4.39864 3.31796 4.11736 3.45839 3.83608H3.46775V3.80795L3.49584 3.77045H3.5052V3.74232L3.52393 3.70482H3.54265V3.68606L3.56137 3.63918H3.57073V3.62043L3.59882 3.57355H3.60818V3.5548L3.62691 3.50792H3.63627V3.49854L3.66436 3.44229H3.67372V3.43291L3.7018 3.37666C3.75797 3.27352 3.81415 3.17976 3.86096 3.07662H3.87032V3.06725L3.8984 3.01099L3.93585 2.95474L4.02947 2.77659L4.08564 2.68283H4.10437V2.66408L4.13245 2.6172V2.60782L4.18863 2.51406H4.19799V2.49531L4.22607 2.44843H4.23544V2.43906L4.28225 2.3453H4.30097V2.32654L4.31969 2.27966H4.32906V2.27029L4.38523 2.1859H4.39459V2.15778L4.42268 2.12027H4.43204V2.1109L4.4414 2.08277H4.46012V2.05464L4.48821 2.01714H4.49757V1.99838L4.52566 1.9515V1.94213L4.54438 1.92338H4.56311V1.89525L4.59119 1.85774V1.83899L4.64736 1.75461H4.65673V1.73586L4.69417 1.68898V1.6796L4.75035 1.58584H4.75971V1.57646L4.81588 1.49208H4.82524V1.47333C4.9095 1.35144 4.99376 1.22018 5.07802 1.08891H5.08738V1.07954L5.14355 0.995153H5.15291V0.976401L5.21845 0.892017V0.882641L5.23717 0.863889H5.25589V0.835761L5.28398 0.798257H5.29334V0.788881L5.31207 0.760753H5.32143V0.742001L5.34951 0.695121H5.35888L5.3776 0.666993H5.38696V0.648241L5.39632 0.629489H5.42441V0.601361L5.44313 0.563857H5.4525V0.554481L5.47122 0.526353H5.48994V0.507601L5.51803 0.460721L5.53675 0.432593H5.55548V0.413841L5.56484 0.395089H5.58356V0.366961L5.61165 0.329457H5.62101V0.320081L5.63974 0.301329H5.6491V0.273201L5.68655 0.235697L5.70527 0.198193H5.71463V0.188817L5.73336 0.170065H5.75208V0.141937L5.78017 0.104433V0.0950574L5.80825 0.0669294H5.81761V0.0575534L5.88315 -0.0362066L5.90187 -0.0643346H5.9206V-0.0737105L5.98613 -0.167471L6.06103 -0.26123H6.07975L9.45007 1.68898C8.64494 2.69221 7.9147 3.76107 7.28745 4.89557C5.41505 8.21467 4.35714 12.0495 4.35714 16.1186C4.35714 28.8137 14.6741 39.1367 27.3408 39.1367C34.3249 39.1367 40.5974 35.9957 44.8197 31.0546L48.2181 33.0236C48.1619 33.0892 48.1151 33.1454 48.0589 33.2111L48.0309 33.2392H48.0215V33.2486C47.9841 33.3048 47.9372 33.3517 47.8904 33.408L47.8623 33.4455L47.8436 33.4736H47.8249V33.4924C47.7874 33.5392 47.7406 33.5861 47.6938 33.6424L47.6657 33.6705V33.6799L47.6377 33.708H47.6283V33.7174C47.5815 33.7736 47.544 33.8205 47.4972 33.8674L47.4691 33.9049L47.4411 33.933H47.4317V33.9424C47.3568 34.0362 47.2819 34.1205 47.1976 34.2049L47.1696 34.2331V34.2424C47.0385 34.3831 46.9074 34.5237 46.767 34.6644L46.7389 34.7019L46.7108 34.73H46.7015L46.6734 34.7675L46.6453 34.7956H46.6359V34.805L46.5798 34.8613H46.5704V34.8706L46.5517 34.8988H46.5423V34.9081L46.5142 34.9269H46.5049V34.9363C46.3551 35.0956 46.2053 35.2457 46.0555 35.3957H46.0461L46.018 35.4238H46.0087V35.4332L45.9525 35.4894H45.9431V35.4988L45.915 35.5269L45.8776 35.5551C45.7653 35.6676 45.6436 35.7801 45.5312 35.8926H45.5125V35.902L45.4938 35.9207H45.4844V35.9301L45.4563 35.9582H45.4469L45.4189 35.9864V35.9957C45.3065 36.0895 45.1942 36.1926 45.0912 36.2864C45.0257 36.3427 44.9601 36.3989 44.9039 36.4552H44.8852V36.4645L44.8571 36.4833V36.4927L44.8197 36.5208C44.7729 36.5583 44.7167 36.6052 44.6699 36.6521H44.6605V36.6614L44.6325 36.6802H44.6231V36.6896C44.5763 36.7271 44.5201 36.774 44.4733 36.8115H44.4546V36.8208L44.4265 36.849C44.3703 36.8958 44.3235 36.9333 44.2673 36.9802H44.258V36.9896L44.2299 37.0177C44.0801 37.1396 43.9209 37.2615 43.7712 37.374H43.7618V37.3834C43.7243 37.4115 43.6869 37.449 43.6401 37.4772H43.6307V37.4865L43.509 37.5803H43.4997C43.4622 37.6178 43.4154 37.6459 43.3779 37.674H43.3686V37.6834L43.2469 37.7772H43.2375L43.1064 37.8709V37.8803L42.9754 37.9741C42.863 38.0491 42.7601 38.1241 42.6477 38.2085H42.6383L42.5541 38.2741H42.5447L42.4511 38.3397H42.4417L42.3575 38.4054H42.3481V38.4148L42.2545 38.471H42.2451V38.4804L42.1609 38.5366H42.1515V38.546L42.0579 38.6023H42.0485V38.6116L41.9549 38.6679H41.9456V38.6773L41.8519 38.7335L41.749 38.7992C41.6647 38.8554 41.5804 38.9117 41.4868 38.9679C41.4306 38.9961 41.3838 39.0336 41.3277 39.0617H41.3183V39.0711C41.2715 39.0992 41.2153 39.1367 41.1685 39.1648H41.1592V39.1742L41.0562 39.2305L41 39.2586H40.9906V39.268C40.9345 39.2961 40.8877 39.3336 40.8315 39.3617H40.8221C40.7753 39.3992 40.7191 39.4274 40.663 39.4649L40.6068 39.493H40.5974V39.5024C40.4196 39.5961 40.2417 39.6993 40.0638 39.793L40.0076 39.8212H39.9983V39.8305L39.9421 39.8587H39.9327V39.868L39.8859 39.8868H39.8672V39.8962L39.8204 39.9243H39.8017V39.9337L39.7549 39.9618H39.7361V39.9712C39.4178 40.1399 39.0901 40.2993 38.7625 40.4493H38.7438V40.4587L38.6876 40.4869H38.6782L38.6127 40.5244C38.5472 40.5525 38.4723 40.59 38.3974 40.6181H38.3786V40.6275L38.3318 40.6556H38.3131L38.2569 40.6837H38.2476C38.1727 40.7212 38.1071 40.7494 38.0322 40.7869H38.0229C37.8637 40.8525 37.7139 40.9181 37.5641 40.9838H37.5548C37.508 41.0025 37.4518 41.0307 37.3956 41.0494C37.3395 41.0775 37.2833 41.0963 37.2365 41.115H37.2271L37.1522 41.1525H37.1241V41.1619L37.068 41.1807H37.0586L36.9837 41.2182H36.965L36.8058 41.2838H36.7965L36.7216 41.3119H36.6935V41.3213C36.6467 41.3401 36.5905 41.3588 36.5437 41.3776H36.5343V41.3869C36.3845 41.4338 36.2254 41.4901 36.0756 41.5463H36.0662L35.982 41.5745H35.9726V41.5838L35.879 41.612H35.8696L35.776 41.6401V41.6495L35.6824 41.6776H35.673L35.5794 41.7151C35.5045 41.7339 35.439 41.7526 35.3734 41.7807H35.3454L35.2611 41.8089H35.2424V41.8182L35.1581 41.8464H35.1488C35.0364 41.8745 34.9334 41.912 34.8211 41.9401H34.8117C34.7368 41.9683 34.6619 41.987 34.587 42.0058L34.4747 42.0433H34.456L34.353 42.0714H34.3155V42.0808L34.2313 42.1089H34.1845V42.1183L34.1002 42.137H34.0908V42.1464L33.9691 42.1745H33.9598L33.8381 42.2027H33.8287V42.212L33.707 42.2402H33.6883L33.5666 42.2683H33.5572V42.2777L33.4261 42.3058C33.3793 42.3152 33.3325 42.3245 33.2857 42.3433H33.267L33.1359 42.3714H33.1266C33.0798 42.3808 33.0329 42.3902 32.9861 42.4089H32.9674L32.827 42.4371H32.7989V42.4464L32.6678 42.4746H32.6397L32.4993 42.5027H32.4712V42.5121L32.3308 42.5402H32.3027L32.1436 42.5683C32.0125 42.5964 31.8908 42.6152 31.7597 42.634H31.741V42.6433C31.6848 42.6527 31.6193 42.6621 31.5631 42.6715H31.5163V42.6808L31.3478 42.6996H31.2822V42.709L31.1231 42.7371H31.0482V42.7465C30.992 42.7558 30.9359 42.7652 30.8797 42.7652H30.8235V42.7746C30.655 42.8027 30.4958 42.8215 30.3273 42.8308V42.8402C30.2243 42.8496 30.1214 42.859 30.0184 42.8684H29.9248V42.8777C29.8405 42.8871 29.7469 42.8965 29.6626 42.9059H29.5596C29.4567 42.9152 29.3443 42.9246 29.232 42.934H29.1664V42.9434C29.0073 42.9527 28.8388 42.9621 28.6702 42.9715H28.5111C28.1179 42.9902 27.734 42.9996 27.3408 42.9996C26.9008 42.9996 26.4608 42.9902 26.0302 42.9715Z" fill="url(#paint0_linear_1542_4208)"/>
<path fill-rule="evenodd" clip-rule="evenodd" d="M48.7798 24.4258L45.3908 22.4662C46.0836 20.4785 46.4674 18.3407 46.4674 16.1186C46.4674 15.5092 46.4393 14.9091 46.3831 14.3184H42.5073C42.5728 14.9091 42.6103 15.5092 42.6103 16.1186C42.6103 24.5477 35.7573 31.4109 27.3408 31.4109C18.9244 31.4109 12.0714 24.5477 12.0714 16.1186C12.0714 14.8341 12.2399 13.5871 12.5395 12.3964L9.08495 10.3993C8.52323 12.2088 8.21429 14.1215 8.21429 16.1186C8.21429 26.676 16.7992 35.2738 27.3408 35.2738C34.2968 35.2738 40.3915 31.5421 43.7337 25.9728L47.0759 27.9043L50.4275 29.8357C51.0829 28.7387 51.6633 27.5855 52.1595 26.3853L48.7798 24.4258Z" fill="url(#paint1_linear_1542_4208)"/>
<path fill-rule="evenodd" clip-rule="evenodd" d="M27.3408 8.55221C31.5069 8.55221 34.896 11.9463 34.896 16.1186C34.896 20.291 31.5069 23.6757 27.3408 23.6757C23.1748 23.6757 19.7951 20.291 19.7951 16.1186C19.7951 11.9463 23.1748 8.55221 27.3408 8.55221ZM17.3048 10.6899C16.4341 12.3026 15.9379 14.1591 15.9379 16.1186C15.9379 22.4193 21.0496 27.548 27.3408 27.548C33.6321 27.548 38.7531 22.4193 38.7531 16.1186C38.7531 9.81796 33.6321 4.6893 27.3408 4.6893C24.4199 4.6893 21.7424 5.80504 19.7202 7.62398L16.2562 5.61752L12.8391 3.64856C11.9965 4.62366 11.2569 5.69253 10.6203 6.82702L17.3048 10.6899Z" fill="url(#paint2_linear_1542_4208)"/>
</g>
<defs>
<linearGradient id="paint0_linear_1542_4208" x1="0.499999" y1="7.96992" x2="46.8781" y2="35.1003" gradientUnits="userSpaceOnUse">
<stop stop-color="#1047D6"/>
<stop offset="1" stop-color="#001B7C"/>
</linearGradient>
<linearGradient id="paint1_linear_1542_4208" x1="0.499999" y1="7.96992" x2="46.8781" y2="35.1003" gradientUnits="userSpaceOnUse">
<stop stop-color="#1047D6"/>
<stop offset="1" stop-color="#001B7C"/>
</linearGradient>
<linearGradient id="paint2_linear_1542_4208" x1="0.499999" y1="7.96992" x2="46.8781" y2="35.1003" gradientUnits="userSpaceOnUse">
<stop stop-color="#1047D6"/>
<stop offset="1" stop-color="#001B7C"/>
</linearGradient>
<clipPath id="clip0_1542_4208">
<rect width="108" height="43" fill="white" transform="translate(0.5)"/>
</clipPath>
</defs>
</svg>
