<svg version="1.0" xmlns="http://www.w3.org/2000/svg" width="3788" height="3788" viewBox="0 0 2841 2841"><path d="M1905.5 62.7c-20.5 19.7-36.5 35.7-103.3 103.2-103.9 104.9-106.3 107.3-106 108.2.2.4 41.9 42.7 92.8 93.9 50.9 51.3 107.2 108.1 125.3 126.4 18 18.2 40.3 40.7 49.6 50.1 9.3 9.3 18.3 19.2 20.1 21.8 4.6 6.9 9.7 18.7 11.5 26.5 1.6 6.7 2.1 21.7 1 30.2-1.8 13.2-7.8 29.7-14.4 39.3-3.3 4.9-4.2 5.7-149.7 152.3-55.1 55.5-115.4 116.2-133.9 134.9-18.5 18.7-79.2 79.8-134.9 135.8-55.6 56.1-110.4 111.3-121.9 122.9-18.5 18.8-20.9 20.9-22.4 19.7-.9-.8-5.6-5.3-10.3-10.1-4.7-4.7-54-54.4-109.6-110.5-55.7-56-116.6-117.3-135.4-136.3-18.8-19-80.2-80.8-136.3-137.3-157.9-159-167.7-168.9-170.6-173.2-5.8-8.6-10-20.1-12.8-35.3-1.4-7.7-.8-28.4 1.1-34.7 2.4-8.2 6.4-17 10.2-22.8 1.7-2.6 43.2-45.1 92.2-94.5 48.9-49.3 103.7-104.6 121.7-122.7 17.9-18.2 41.2-41.6 51.6-52.1l19-19-20.8-21.1c-89.7-91-123.4-125.2-138.3-140.3-9.4-9.6-26.4-26.9-37.8-38.3l-20.7-20.8-33.8 34.3C870 112.1 819.6 163 776.5 206.5c-43.1 43.4-90.3 91.1-105 106-14.7 14.8-62.2 62.8-105.5 106.5s-90.4 91.2-104.5 105.5c-14.2 14.3-49.6 50.1-78.8 79.5-29.2 29.4-57.7 59.1-63.4 66-49.7 59.8-98.7 129.5-144.8 206-6.1 10.2-12.3 20.5-13.7 23-10.2 18.2-17 30.4-20 36-2 3.6-5.3 9.6-7.4 13.5-19.9 36.9-47.6 96.7-63.8 138.2-4 10.4-7.7 19.7-8.1 20.8-.4 1.1-.9 2.4-1.1 3-.2.5-2.4 6.6-4.9 13.5-9.2 25.3-24.9 75.4-29 92.8-.3.9-.9 3.5-1.5 5.7s-1.5 5.6-2 7.5c-.4 1.9-1 4.4-1.3 5.5-4.1 16.7-8.7 37.9-10.3 47-.2 1.6-.7 3.7-.9 4.5-.2.8-.6 3.3-1 5.5-.3 2.2-1 6.5-1.5 9.5s-1.2 7.3-1.5 9.5c-.4 2.2-.8 5.1-1 6.5-.8 5.1-2.5 19.7-3 26.5-.3 3.8-.8 8.5-1.1 10.4-.5 3.3.2 4.1 38.4 42.5 21.5 21.5 54 54.2 72.2 72.6 18.3 18.4 77.2 77.8 131 132s112.7 113.6 131 132c18.3 18.4 77.2 77.8 131 132s112.3 113.1 130 131c17.7 17.9 75.7 76.3 128.9 129.9C817 2180.4 875.6 2239.4 894 2258c18.4 18.6 78.7 79.4 134 135 55.3 55.7 115.1 115.9 132.9 133.9 39 39.3 230.8 232.5 247.4 249.2 6.5 6.6 12 11.9 12.3 11.9.4 0 61.5-61.4 143.4-144 18.8-19 79.8-80.4 135.5-136.5 55.7-56.1 116.5-117.3 135-136 18.6-18.7 80.1-80.7 136.9-137.8 56.7-57.2 112.7-113.6 124.5-125.5 11.7-12 67.7-68.4 124.5-125.5 56.7-57.1 117.9-118.8 136-137 18-18.3 78.4-79.1 134.1-135.2 55.7-56.1 116.3-117.1 134.5-135.5 18.3-18.4 74-74.6 123.9-124.8 49.8-50.2 90.7-91.7 90.9-92.2.2-.5-.2-1.9-.9-3.2-.6-1.2-1.3-4.4-1.5-7.1-.4-6.9-1.4-17.8-1.9-20.7-.2-1.4-.7-5-1-8-.6-5-1.9-14.1-3-21.3-.3-1.5-.7-4.2-1-6-1.2-7-5.7-30.5-7-36.2-.7-3.3-2.5-11-3.9-17.1-1.5-6.1-2.8-11.9-3-13-3.2-16.3-26.2-91-35.1-113.9-1.3-3.3-4.8-12.5-7.8-20.5-8.7-22.7-16.9-42.7-24.1-58.3-1.4-3.2-2.6-5.9-2.6-6.2 0-.2-2.9-6.5-6.5-14-3.6-7.6-6.5-13.9-6.5-14.1 0-.6-23.5-47.6-27.4-54.7-1.8-3.4-6.4-11.8-10.1-18.7-42.7-79-101-166.9-159.5-240.5-7.9-9.9-14.6-18.2-14.9-18.5-.3-.3-2.2-2.5-4.2-5s-4.7-5.6-5.9-7c-1.8-2.2-34.5-35.2-159.3-161.4-14.8-14.9-61.7-62.2-104.2-105.1-42.5-42.9-88.9-89.8-103.1-104.1C2131.1 269 2084.6 222 2042 179c-42.6-43-88.3-89.1-101.5-102.5l-24.1-24.3-10.9 10.5zM657.3 1049.9c.1 188.1-.1 283.1-.8 283.2-.5.1-127.3.2-281.7.3l-280.8.1 9-9c4.9-4.9 26.6-26.9 48.2-48.7 21.6-21.8 80.5-81.2 130.8-131.8 50.3-50.7 110.6-111.5 134-135.1 23.4-23.5 82.6-83.2 131.5-132.5 49-49.3 93.5-94.2 99-99.8 5.5-5.7 10.2-10.1 10.3-10 .2.1.4 127.6.5 283.3zm1478.1-1.1c-.1 155.5-.2 283.2-.3 283.7-.1.7-94.1 1-280.8.9-154.5-.1-281-.2-281.3-.3-.2 0 14.7-15.3 33.2-33.9 18.6-18.5 48.4-48.6 66.4-66.7 17.9-18.2 77.5-78.2 132.4-133.5 137.1-138.1 179-180.3 260.2-262.3 38.6-38.9 70.2-70.7 70.2-70.7.1 0 0 127.2 0 282.8zm187.3-143.1c52.8 53.2 111.8 112.6 131 132 19.1 19.3 78.3 78.9 131.4 132.5 134.5 135.4 161.9 163.1 161.9 163.2 0 .1-126.7.1-281.5.1H2184V765.8l21.3 21.5c11.6 11.9 64.5 65.1 117.4 118.4zM910 971.9c45.4 45.7 103.4 104.2 129 130 25.6 25.8 87.5 88.1 137.5 138.6 50.1 50.4 91.1 91.9 91.2 92.3.2.4-126.3.7-281 .7H705.5l.2-281.5c.1-154.8.2-282.4.3-283.5.1-2 3 .8 204 203.4zm-253.5 411.3c.7.7.9 564.7.2 565.4-.3.4-110.8-110.6-227.7-228.6-17.9-18.1-62-62.5-98-98.8-154.5-155.6-235.5-237.3-235.8-238-.3-.9 560.4-.9 561.3 0zm611.5-.3c0 .2-16.8 17.3-37.4 38-20.6 20.7-52.1 52.4-70 70.4-17.9 18.1-76.4 77.1-129.9 131-53.6 54-111.6 112.4-128.8 129.8-137.6 138.9-195.4 196.8-195.7 196.4-.7-.7-.6-564.1.1-565.1.5-.9 561.7-1.3 561.7-.5zm867 0c.6.1.7 566.1.1 566.1-.2 0-15-14.8-33-32.9-17.9-18.1-77.9-78.5-133.2-134.3-55.4-55.7-115.7-116.4-134-135-39.4-39.6-211.7-213.2-241.3-243-11.3-11.3-20.1-20.8-19.6-21 .9-.3 559.8-.2 561 .1zm611 .1c0 .5-37.5 38.5-188 190-54.9 55.3-114.3 115.1-132 133-58 58.6-229.4 231.1-235.5 237.2l-6 6-.3-282.4c-.1-155.3 0-282.8.2-283.3.4-1 561.6-1.5 561.6-.5zm-1165.5 264.5c53.9 54.3 112.6 113.5 130.5 131.5 17.9 18.1 76.7 77.3 130.6 131.7 157 158 165.4 166.6 164.9 167.1-.3.4-542 .6-558.2.3l-3.3-.1v-567.1l18.8 18.9c10.3 10.5 62.8 63.4 116.7 117.7zm-184.4-133.8c.4 9.9.1 563.5-.4 563.9-.8.8-561.7 1.1-561.7.4 0-.5 47.3-48.3 197-199.1 46.5-46.8 100.9-101.7 121-121.9 20.1-20.3 79.7-80.4 132.5-133.5 52.8-53.2 99.2-100 103-104 3.9-4 7.3-7.3 7.8-7.4.4 0 .7.7.8 1.6zm.1 892.3c0 153.2-.1 280.7-.1 283.4l-.1 4.9-33.2-33.5c-18.3-18.5-78.8-79.4-134.4-135.5-55.7-56-116.4-117.1-134.9-135.8-81-81.7-237.1-238.9-248.4-250.1l-12.3-12.4 281.7.2 281.8.3-.1 278.5zm575-241.8c-20.4 20.5-52.2 52.6-70.7 71.3-32.8 33.1-164.6 165.8-299.5 301.7-36.6 36.8-86.6 87.3-111.2 112.1l-44.8 45.2V2127h563.4l-37.2 37.2z"/><path d="M1419.5 226.5c-1.1 3.8-1 3.4-2.2 7.5-2.9 9.1-12.6 40.8-13.3 43.5-.5 1.6-3 9.7-5.5 18-5.2 16.8-8.4 27.3-9 29.5-.2.8-5 16.3-10.5 34.5-5.6 18.1-13 42.4-16.5 54-10.7 35.2-12.5 40.8-12.8 41.2-.3.2-22.5-9-35.1-14.6-2.3-1-8.6-3.7-14.1-6.1-12.2-5.1-14.7-6.2-20.7-8.9-2.6-1.1-5-2.1-5.3-2.1-.2 0-2.8-1.1-5.7-2.4-5.7-2.7-44.2-18.9-47.1-19.9-1.6-.6-1.6-.4-.1 3.1.9 2 3.1 7.5 5.1 12.2 1.9 4.7 4.6 10.9 5.9 13.8 1.3 2.9 2.4 5.5 2.4 5.7 0 .3.9 2.4 1.9 4.8 1.9 4.1 35.5 84.2 37.1 88.3.8 1.9-.4 2.4-19.8 8.4-11.4 3.5-24.1 7.4-28.2 8.7-4.1 1.3-8.2 2.6-9 2.8-.8.2-6 1.8-11.5 3.5s-15.6 4.9-22.5 7c-6.9 2.1-37.5 11.6-68 21-30.5 9.5-58.9 18.2-63 19.5-7.4 2.2-7.7 2.8-1.5 4.1.6.1 6 1.8 12 3.7 6.1 2 23.6 7.4 39 12.2 15.4 4.7 33.6 10.4 40.5 12.5 6.9 2.2 34.6 10.7 61.5 19 27 8.3 54.1 16.7 60.2 18.6l11.3 3.5-1.6 3.7c-.9 2-3.6 8.6-6.1 14.7-2.5 6-5.4 12.8-6.4 15-1.9 4.2-13.6 32.2-17.4 41.5-5.8 14.1-21.7 51.7-22.6 53.3-.6 1.1-.9 2-.7 2.2.3.3 40.5-16.6 51.3-21.5 2.2-1 6.9-3 10.5-4.5 3.6-1.5 7.9-3.3 9.5-4 1.7-.8 9.5-4.1 17.5-7.5 7.9-3.4 15.8-6.7 17.5-7.5 5.4-2.5 22.4-9.5 22.9-9.5s1.8 4 19.6 62.5c6.6 22 12.9 42.7 13.9 46 2.4 7.8 5.1 16.5 22.1 72 7.8 25.3 14.3 46.8 14.5 47.9.3 1 .6 2 .8 2.2.4.4 5.1-14.4 14.7-46.1 2.7-8.8 6.5-21.4 8.5-28 2-6.6 3.8-12.5 3.9-13 .1-.6 1.7-5.7 3.5-11.5s4.8-15.5 6.6-21.5c8.1-26.4 11.5-37.7 14.5-47.5 1.7-5.8 5-16.3 7.2-23.4 2.2-7 4.1-13.6 4.3-14.5.7-2.9 7.5-24.5 7.9-24.9.3-.3 6.1 2.1 30.1 12.3 1.7.7 8.9 3.8 16 6.8 41.5 17.9 83 35.4 83.3 35.2.1-.1-1.8-5-4.3-10.8-4.5-10.5-6.7-15.7-7-16.7-.1-.3-1-2.3-1.9-4.5-2.3-5.3-11.3-26.5-14.1-33.5-2.1-5.1-12.4-29.5-14.8-35-.5-1.4-1.1-2.7-1.2-3-.1-.3-.7-1.6-1.2-3-.6-1.4-3.1-7.3-5.6-13.2l-4.6-10.8 3.7-1c2-.5 7.3-2.1 11.7-3.6 4.4-1.4 8.7-2.7 9.5-2.9 1.5-.4 40.7-12.5 120-37.2 8-2.4 17.9-5.6 22.1-6.9 4.1-1.3 8.4-2.6 9.5-2.8 1-.3 7.1-2.1 13.4-4.1 6.3-2 16.7-5.2 23-7.2 6.3-1.9 12.8-4 14.5-4.6l2.9-1.1-2.9-.7c-1.7-.4-11.8-3.5-22.5-6.9-10.7-3.3-24.7-7.7-31-9.6-6.3-2-14.9-4.7-19-6-4.1-1.3-27.3-8.4-51.5-15.9-24.2-7.4-50.3-15.5-58-18-7.7-2.4-21-6.5-29.5-9.1-8.5-2.5-15.6-4.7-15.7-4.8-.1-.1.4-1.5 1.2-3.1.8-1.7 9.1-21.5 18.5-44 21.4-51.1 27.8-66.2 29.5-70 3.8-8.4 5.5-13.7 4.3-13.2-2.8 1.1-77.6 33-81.4 34.7-2.2 1-9.6 4.2-16.5 7-6.8 2.9-14.4 6.1-16.9 7.3-8.8 3.9-13.3 5.7-13.5 5.5-.3-.4-4.5-13.8-7.5-23.8-1.3-4.1-3.1-10.2-4.2-13.5-1.1-3.3-2.1-6.7-2.3-7.5-.2-.8-1.2-4.4-2.3-8-3.9-12.2-8.6-27.5-8.8-28.5-.1-.6-4-13.6-8.8-29-4.7-15.4-14.6-48-22.1-72.5-7.4-24.5-13.9-45.4-14.3-46.5-.8-1.7-1-1.6-1.7 1z"/></svg>