<?xml version="1.0" standalone="no"?>
<!DOCTYPE svg PUBLIC "-//W3C//DTD SVG 20010904//EN"
 "http://www.w3.org/TR/2001/REC-SVG-20010904/DTD/svg10.dtd">
<svg version="1.0" xmlns="http://www.w3.org/2000/svg"
 width="2841.000000pt" height="2841.000000pt" viewBox="0 0 2841.000000 2841.000000"
 preserveAspectRatio="xMidYMid meet">
<metadata>
Created by potrace 1.14, written by Peter Selinger 2001-2017
</metadata>
<g transform="translate(0.000000,2841.000000) scale(0.100000,-0.100000)"
fill="#000000" stroke="none">
<path d="M19055 27783 c-205 -197 -365 -357 -1033 -1032 -1039 -1049 -1063
-1073 -1060 -1082 2 -4 419 -427 928 -939 509 -513 1072 -1081 1253 -1264 180
-182 403 -407 496 -501 93 -93 183 -192 201 -218 46 -69 97 -187 115 -265 16
-67 21 -217 10 -302 -18 -132 -78 -297 -144 -393 -33 -49 -42 -57 -1497 -1523
-551 -555 -1154 -1162 -1339 -1349 -185 -187 -792 -798 -1349 -1358 -556 -561
-1104 -1113 -1219 -1229 -185 -188 -209 -209 -224 -197 -9 8 -56 53 -103 101
-47 47 -540 544 -1096 1105 -557 560 -1166 1173 -1354 1363 -188 190 -802 808
-1363 1373 -1579 1590 -1677 1689 -1706 1732 -58 86 -100 201 -128 353 -14 77
-8 284 11 347 24 82 64 170 102 228 17 26 432 451 922 945 489 493 1037 1046
1217 1227 179 182 412 416 516 521 l190 190 -208 211 c-897 910 -1234 1252
-1383 1403 -94 96 -264 269 -378 383 l-207 208 -338 -343 c-187 -189 -691
-698 -1122 -1133 -431 -434 -903 -911 -1050 -1060 -147 -148 -622 -628 -1055
-1065 -433 -437 -904 -912 -1045 -1055 -142 -143 -496 -501 -788 -795 -292
-294 -577 -591 -634 -660 -497 -598 -987 -1295 -1448 -2060 -61 -102 -123
-205 -137 -230 -102 -182 -170 -304 -200 -360 -20 -36 -53 -96 -74 -135 -199
-369 -476 -967 -638 -1382 -40 -104 -77 -197 -81 -208 -4 -11 -9 -24 -11 -30
-2 -5 -24 -66 -49 -135 -92 -253 -249 -754 -290 -928 -3 -9 -9 -35 -15 -57 -6
-22 -15 -56 -20 -75 -4 -19 -10 -44 -13 -55 -41 -167 -87 -379 -103 -470 -2
-16 -7 -37 -9 -45 -2 -8 -6 -33 -10 -55 -3 -22 -10 -65 -15 -95 -5 -30 -12
-73 -15 -95 -4 -22 -8 -51 -10 -65 -8 -51 -25 -197 -30 -265 -3 -38 -8 -85
-11 -104 -5 -33 2 -41 384 -425 215 -215 540 -542 722 -726 183 -184 772 -778
1310 -1320 538 -542 1127 -1136 1310 -1320 183 -184 772 -778 1310 -1320 538
-542 1123 -1131 1300 -1310 177 -179 757 -763 1289 -1299 531 -535 1117 -1125
1301 -1311 184 -186 787 -794 1340 -1350 553 -557 1151 -1159 1329 -1339 390
-393 2308 -2325 2474 -2492 65 -66 120 -119 123 -119 4 0 615 614 1434 1440
188 190 798 804 1355 1365 557 561 1165 1173 1350 1360 186 187 801 807 1369
1378 567 572 1127 1136 1245 1255 117 120 677 684 1245 1255 567 571 1179
1188 1360 1370 180 183 784 791 1341 1352 557 561 1163 1171 1345 1355 183
184 740 746 1239 1248 498 502 907 917 909 922 2 5 -2 19 -9 32 -6 12 -13 44
-15 71 -4 69 -14 178 -19 207 -2 14 -7 50 -10 80 -6 50 -19 141 -30 213 -3 15
-7 42 -10 60 -12 70 -57 305 -70 362 -7 33 -25 110 -39 171 -15 61 -28 119
-30 130 -32 163 -262 910 -351 1139 -13 33 -48 125 -78 205 -87 227 -169 427
-241 583 -14 32 -26 59 -26 62 0 2 -29 65 -65 140 -36 76 -65 139 -65 141 0 6
-235 476 -274 547 -18 34 -64 118 -101 187 -427 790 -1010 1669 -1595 2405
-79 99 -146 182 -149 185 -3 3 -22 25 -42 50 -20 25 -47 56 -59 70 -18 22
-345 352 -1593 1614 -148 149 -617 622 -1042 1051 -425 429 -889 898 -1031
1041 -143 144 -608 614 -1034 1044 -426 430 -883 891 -1015 1025 l-241 243
-109 -105z m-12482 -9872 c1 -1881 -1 -2831 -8 -2832 -5 -1 -1273 -2 -2817 -3
l-2808 -1 90 90 c49 49 266 269 482 487 216 218 805 812 1308 1318 503 507
1106 1115 1340 1351 234 235 826 832 1315 1325 490 493 935 942 990 998 55 57
102 101 103 100 2 -1 4 -1276 5 -2833z m14781 11 c-1 -1555 -2 -2832 -3 -2837
-1 -7 -941 -10 -2808 -9 -1545 1 -2810 2 -2813 3 -2 0 147 153 332 339 186
185 484 486 664 667 179 182 775 782 1324 1335 1371 1381 1790 1803 2602 2623
386 389 702 707 702 707 1 0 0 -1272 0 -2828z m1873 1431 c528 -532 1118
-1126 1310 -1320 191 -193 783 -789 1314 -1325 1345 -1354 1619 -1631 1619
-1632 0 -1 -1267 -1 -2815 -1 l-2815 0 0 2838 0 2839 213 -215 c116 -119 645
-651 1174 -1184z m-14127 -662 c454 -457 1034 -1042 1290 -1300 256 -258 875
-881 1375 -1386 501 -504 911 -919 912 -923 2 -4 -1263 -7 -2810 -7 l-2812 0
2 2815 c1 1548 2 2824 3 2835 1 20 30 -8 2040 -2034z m-2535 -4113 c7 -7 9
-5647 2 -5654 -3 -4 -1108 1106 -2277 2286 -179 181 -620 625 -980 988 -1545
1556 -2355 2373 -2358 2380 -3 9 5604 9 5613 0z m6115 3 c0 -2 -168 -173 -374
-380 -206 -207 -521 -524 -700 -704 -179 -181 -764 -771 -1299 -1310 -536
-540 -1116 -1124 -1288 -1298 -1376 -1389 -1954 -1968 -1957 -1964 -7 7 -6
5641 1 5651 5 9 5617 13 5617 5z m8670 0 c6 -1 7 -5661 1 -5661 -2 0 -150 148
-330 329 -179 181 -779 785 -1332 1343 -554 557 -1157 1164 -1340 1350 -394
396 -2117 2132 -2413 2430 -113 113 -201 208 -196 210 9 3 5598 2 5610 -1z
m6110 -1 c0 -5 -375 -385 -1880 -1900 -549 -553 -1143 -1151 -1320 -1330 -580
-586 -2294 -2311 -2355 -2372 l-60 -60 -3 2824 c-1 1553 0 2828 2 2833 4 10
5616 15 5616 5z m-11655 -2645 c539 -543 1126 -1135 1305 -1315 179 -181 767
-773 1306 -1317 1570 -1580 1654 -1666 1649 -1671 -3 -4 -5420 -6 -5582 -3
l-33 1 0 2836 0 2835 188 -189 c103 -105 628 -634 1167 -1177z m-1844 1338 c4
-99 1 -5635 -4 -5639 -8 -8 -5617 -11 -5617 -4 0 5 473 483 1970 1991 465 468
1009 1017 1210 1219 201 203 797 804 1325 1335 528 532 992 1000 1030 1040 39
40 73 73 78 74 4 0 7 -7 8 -16z m1 -8923 c0 -1532 -1 -2807 -1 -2834 l-1 -49
-332 335 c-183 185 -788 794 -1344 1355 -557 560 -1164 1171 -1349 1358 -810
817 -2371 2389 -2484 2501 l-123 124 2817 -2 2818 -3 -1 -2785z m5750 2418
c-204 -205 -522 -526 -707 -713 -328 -331 -1646 -1658 -2995 -3017 -366 -368
-866 -873 -1112 -1121 l-448 -452 0 2838 0 2837 2817 0 2817 0 -372 -372z"/>
<path d="M14195 26145 c-11 -38 -10 -34 -22 -75 -29 -91 -126 -408 -133 -435
-5 -16 -30 -97 -55 -180 -52 -168 -84 -273 -90 -295 -2 -8 -50 -163 -105 -345
-56 -181 -130 -424 -165 -540 -107 -352 -125 -408 -128 -412 -3 -2 -225 90
-351 146 -23 10 -86 37 -141 61 -122 51 -147 62 -207 89 -26 11 -50 21 -53 21
-2 0 -28 11 -57 24 -57 27 -442 189 -471 199 -16 6 -16 4 -1 -31 9 -20 31 -75
51 -122 19 -47 46 -109 59 -138 13 -29 24 -55 24 -57 0 -3 9 -24 19 -48 19
-41 355 -842 371 -883 8 -19 -4 -24 -198 -84 -114 -35 -241 -74 -282 -87 -41
-13 -82 -26 -90 -28 -8 -2 -60 -18 -115 -35 -55 -17 -156 -49 -225 -70 -69
-21 -375 -116 -680 -210 -305 -95 -589 -182 -630 -195 -74 -22 -77 -28 -15
-41 6 -1 60 -18 120 -37 61 -20 236 -74 390 -122 154 -47 336 -104 405 -125
69 -22 346 -107 615 -190 270 -83 541 -167 602 -186 l113 -35 -16 -37 c-9 -20
-36 -86 -61 -147 -25 -60 -54 -128 -64 -150 -19 -42 -136 -322 -174 -415 -58
-141 -217 -517 -226 -533 -6 -11 -9 -20 -7 -22 3 -3 405 166 513 215 22 10 69
30 105 45 36 15 79 33 95 40 17 8 95 41 175 75 79 34 158 67 175 75 54 25 224
95 229 95 5 0 18 -40 196 -625 66 -220 129 -427 139 -460 24 -78 51 -165 221
-720 78 -253 143 -468 145 -479 3 -10 6 -20 8 -22 4 -4 51 144 147 461 27 88
65 214 85 280 20 66 38 125 39 130 1 6 17 57 35 115 18 58 48 155 66 215 81
264 115 377 145 475 17 58 50 163 72 234 22 70 41 136 43 145 7 29 75 245 79
249 3 3 61 -21 301 -123 17 -7 89 -38 160 -68 415 -179 830 -354 833 -352 1 1
-18 50 -43 108 -45 105 -67 157 -70 167 -1 3 -10 23 -19 45 -23 53 -113 265
-141 335 -21 51 -124 295 -148 350 -5 14 -11 27 -12 30 -1 3 -7 16 -12 30 -6
14 -31 73 -56 132 l-46 108 37 10 c20 5 73 21 117 36 44 14 87 27 95 29 15 4
407 125 1200 372 80 24 179 56 221 69 41 13 84 26 95 28 10 3 71 21 134 41 63
20 167 52 230 72 63 19 128 40 145 46 l29 11 -29 7 c-17 4 -118 35 -225 69
-107 33 -247 77 -310 96 -63 20 -149 47 -190 60 -41 13 -273 84 -515 159 -242
74 -503 155 -580 180 -77 24 -210 65 -295 91 -85 25 -156 47 -157 48 -1 1 4
15 12 31 8 17 91 215 185 440 214 511 278 662 295 700 38 84 55 137 43 132
-28 -11 -776 -330 -814 -347 -22 -10 -96 -42 -165 -70 -68 -29 -144 -61 -169
-73 -88 -39 -133 -57 -135 -55 -3 4 -45 138 -75 238 -13 41 -31 102 -42 135
-11 33 -21 67 -23 75 -2 8 -12 44 -23 80 -39 122 -86 275 -88 285 -1 6 -40
136 -88 290 -47 154 -146 480 -221 725 -74 245 -139 454 -143 465 -8 17 -10
16 -17 -10z"/>
</g>
</svg>
